<svg xmlns="http://www.w3.org/2000/svg" width="32" height="14" viewBox="0 0 32 14" shape-rendering="crispEdges"><title>pallet</title><rect x="0" y="0" width="2" height="1" fill="#17120c"/><rect x="2" y="0" width="2" height="1" fill="#8e949c"/><rect x="4" y="0" width="1" height="1" fill="#565c64"/><rect x="5" y="0" width="9" height="1" fill="#17120c"/><rect x="14" y="0" width="2" height="1" fill="#8e949c"/><rect x="16" y="0" width="1" height="1" fill="#565c64"/><rect x="17" y="0" width="10" height="1" fill="#17120c"/><rect x="27" y="0" width="2" height="1" fill="#8e949c"/><rect x="29" y="0" width="1" height="1" fill="#565c64"/><rect x="30" y="0" width="2" height="1" fill="#17120c"/><rect x="0" y="1" width="1" height="1" fill="#17120c"/><rect x="1" y="1" width="1" height="1" fill="#c59854"/><rect x="2" y="1" width="2" height="1" fill="#8e949c"/><rect x="4" y="1" width="1" height="1" fill="#565c64"/><rect x="5" y="1" width="9" height="1" fill="#c59854"/><rect x="14" y="1" width="2" height="1" fill="#8e949c"/><rect x="16" y="1" width="1" height="1" fill="#565c64"/><rect x="17" y="1" width="6" height="1" fill="#c59854"/><rect x="23" y="1" width="1" height="1" fill="#5f4726"/><rect x="24" y="1" width="3" height="1" fill="#c59854"/><rect x="27" y="1" width="2" height="1" fill="#8e949c"/><rect x="29" y="1" width="1" height="1" fill="#565c64"/><rect x="30" y="1" width="1" height="1" fill="#c59854"/><rect x="31" y="1" width="1" height="1" fill="#17120c"/><rect x="0" y="2" width="1" height="1" fill="#17120c"/><rect x="1" y="2" width="1" height="1" fill="#6b532e"/><rect x="2" y="2" width="1" height="1" fill="#ccd2da"/><rect x="3" y="2" width="1" height="1" fill="#8e949c"/><rect x="4" y="2" width="1" height="1" fill="#565c64"/><rect x="5" y="2" width="1" height="1" fill="#6b532e"/><rect x="6" y="2" width="1" height="1" fill="#5f4726"/><rect x="7" y="2" width="7" height="1" fill="#6b532e"/><rect x="14" y="2" width="1" height="1" fill="#ccd2da"/><rect x="15" y="2" width="1" height="1" fill="#8e949c"/><rect x="16" y="2" width="1" height="1" fill="#565c64"/><rect x="17" y="2" width="10" height="1" fill="#6b532e"/><rect x="27" y="2" width="1" height="1" fill="#ccd2da"/><rect x="28" y="2" width="1" height="1" fill="#8e949c"/><rect x="29" y="2" width="1" height="1" fill="#565c64"/><rect x="30" y="2" width="1" height="1" fill="#6b532e"/><rect x="31" y="2" width="1" height="1" fill="#17120c"/><rect x="0" y="3" width="1" height="1" fill="#17120c"/><rect x="1" y="3" width="1" height="1" fill="#ab824a"/><rect x="2" y="3" width="2" height="1" fill="#8e949c"/><rect x="4" y="3" width="1" height="1" fill="#565c64"/><rect x="5" y="3" width="9" height="1" fill="#ab824a"/><rect x="14" y="3" width="2" height="1" fill="#8e949c"/><rect x="16" y="3" width="1" height="1" fill="#565c64"/><rect x="17" y="3" width="3" height="1" fill="#ab824a"/><rect x="20" y="3" width="1" height="1" fill="#5f4726"/><rect x="21" y="3" width="6" height="1" fill="#ab824a"/><rect x="27" y="3" width="2" height="1" fill="#8e949c"/><rect x="29" y="3" width="1" height="1" fill="#565c64"/><rect x="30" y="3" width="1" height="1" fill="#ab824a"/><rect x="31" y="3" width="1" height="1" fill="#17120c"/><rect x="0" y="4" width="1" height="1" fill="#17120c"/><rect x="1" y="4" width="1" height="1" fill="#5d4728"/><rect x="2" y="4" width="2" height="1" fill="#8e949c"/><rect x="4" y="4" width="1" height="1" fill="#565c64"/><rect x="5" y="4" width="6" height="1" fill="#5d4728"/><rect x="11" y="4" width="1" height="1" fill="#5f4726"/><rect x="12" y="4" width="2" height="1" fill="#5d4728"/><rect x="14" y="4" width="2" height="1" fill="#8e949c"/><rect x="16" y="4" width="1" height="1" fill="#565c64"/><rect x="17" y="4" width="10" height="1" fill="#5d4728"/><rect x="27" y="4" width="2" height="1" fill="#8e949c"/><rect x="29" y="4" width="1" height="1" fill="#565c64"/><rect x="30" y="4" width="1" height="1" fill="#5d4728"/><rect x="31" y="4" width="1" height="1" fill="#17120c"/><rect x="0" y="5" width="1" height="1" fill="#17120c"/><rect x="1" y="5" width="1" height="1" fill="#c59854"/><rect x="2" y="5" width="2" height="1" fill="#8e949c"/><rect x="4" y="5" width="1" height="1" fill="#565c64"/><rect x="5" y="5" width="9" height="1" fill="#c59854"/><rect x="14" y="5" width="2" height="1" fill="#8e949c"/><rect x="16" y="5" width="1" height="1" fill="#565c64"/><rect x="17" y="5" width="1" height="1" fill="#5f4726"/><rect x="18" y="5" width="9" height="1" fill="#c59854"/><rect x="27" y="5" width="2" height="1" fill="#8e949c"/><rect x="29" y="5" width="1" height="1" fill="#565c64"/><rect x="30" y="5" width="1" height="1" fill="#c59854"/><rect x="31" y="5" width="1" height="1" fill="#17120c"/><rect x="0" y="6" width="1" height="1" fill="#17120c"/><rect x="1" y="6" width="1" height="1" fill="#6b532e"/><rect x="2" y="6" width="1" height="1" fill="#8e949c"/><rect x="3" y="6" width="1" height="1" fill="#ccd2da"/><rect x="4" y="6" width="1" height="1" fill="#565c64"/><rect x="5" y="6" width="9" height="1" fill="#6b532e"/><rect x="14" y="6" width="1" height="1" fill="#8e949c"/><rect x="15" y="6" width="1" height="1" fill="#ccd2da"/><rect x="16" y="6" width="1" height="1" fill="#565c64"/><rect x="17" y="6" width="10" height="1" fill="#6b532e"/><rect x="27" y="6" width="1" height="1" fill="#8e949c"/><rect x="28" y="6" width="1" height="1" fill="#ccd2da"/><rect x="29" y="6" width="1" height="1" fill="#565c64"/><rect x="30" y="6" width="1" height="1" fill="#6b532e"/><rect x="31" y="6" width="1" height="1" fill="#17120c"/><rect x="0" y="7" width="1" height="1" fill="#17120c"/><rect x="1" y="7" width="1" height="1" fill="#ab824a"/><rect x="2" y="7" width="2" height="1" fill="#8e949c"/><rect x="4" y="7" width="1" height="1" fill="#565c64"/><rect x="5" y="7" width="9" height="1" fill="#ab824a"/><rect x="14" y="7" width="2" height="1" fill="#8e949c"/><rect x="16" y="7" width="1" height="1" fill="#565c64"/><rect x="17" y="7" width="10" height="1" fill="#ab824a"/><rect x="27" y="7" width="2" height="1" fill="#8e949c"/><rect x="29" y="7" width="1" height="1" fill="#565c64"/><rect x="30" y="7" width="1" height="1" fill="#ab824a"/><rect x="31" y="7" width="1" height="1" fill="#17120c"/><rect x="0" y="8" width="1" height="1" fill="#17120c"/><rect x="1" y="8" width="1" height="1" fill="#5d4728"/><rect x="2" y="8" width="2" height="1" fill="#8e949c"/><rect x="4" y="8" width="1" height="1" fill="#565c64"/><rect x="5" y="8" width="9" height="1" fill="#5d4728"/><rect x="14" y="8" width="2" height="1" fill="#8e949c"/><rect x="16" y="8" width="1" height="1" fill="#565c64"/><rect x="17" y="8" width="4" height="1" fill="#5d4728"/><rect x="21" y="8" width="1" height="1" fill="#5f4726"/><rect x="22" y="8" width="5" height="1" fill="#5d4728"/><rect x="27" y="8" width="2" height="1" fill="#8e949c"/><rect x="29" y="8" width="1" height="1" fill="#565c64"/><rect x="30" y="8" width="1" height="1" fill="#5d4728"/><rect x="31" y="8" width="1" height="1" fill="#17120c"/><rect x="0" y="9" width="1" height="1" fill="#17120c"/><rect x="1" y="9" width="1" height="1" fill="#c59854"/><rect x="2" y="9" width="2" height="1" fill="#8e949c"/><rect x="4" y="9" width="1" height="1" fill="#565c64"/><rect x="5" y="9" width="6" height="1" fill="#c59854"/><rect x="11" y="9" width="1" height="1" fill="#5f4726"/><rect x="12" y="9" width="2" height="1" fill="#c59854"/><rect x="14" y="9" width="2" height="1" fill="#8e949c"/><rect x="16" y="9" width="1" height="1" fill="#565c64"/><rect x="17" y="9" width="10" height="1" fill="#c59854"/><rect x="27" y="9" width="2" height="1" fill="#8e949c"/><rect x="29" y="9" width="1" height="1" fill="#565c64"/><rect x="30" y="9" width="1" height="1" fill="#c59854"/><rect x="31" y="9" width="1" height="1" fill="#17120c"/><rect x="0" y="10" width="1" height="1" fill="#17120c"/><rect x="1" y="10" width="1" height="1" fill="#6b532e"/><rect x="2" y="10" width="1" height="1" fill="#ccd2da"/><rect x="3" y="10" width="1" height="1" fill="#8e949c"/><rect x="4" y="10" width="1" height="1" fill="#565c64"/><rect x="5" y="10" width="3" height="1" fill="#6b532e"/><rect x="8" y="10" width="1" height="1" fill="#5f4726"/><rect x="9" y="10" width="5" height="1" fill="#6b532e"/><rect x="14" y="10" width="1" height="1" fill="#ccd2da"/><rect x="15" y="10" width="1" height="1" fill="#8e949c"/><rect x="16" y="10" width="1" height="1" fill="#565c64"/><rect x="17" y="10" width="10" height="1" fill="#6b532e"/><rect x="27" y="10" width="1" height="1" fill="#ccd2da"/><rect x="28" y="10" width="1" height="1" fill="#8e949c"/><rect x="29" y="10" width="1" height="1" fill="#565c64"/><rect x="30" y="10" width="1" height="1" fill="#6b532e"/><rect x="31" y="10" width="1" height="1" fill="#17120c"/><rect x="0" y="11" width="2" height="1" fill="#17120c"/><rect x="2" y="11" width="2" height="1" fill="#8e949c"/><rect x="4" y="11" width="1" height="1" fill="#565c64"/><rect x="5" y="11" width="9" height="1" fill="#17120c"/><rect x="14" y="11" width="2" height="1" fill="#8e949c"/><rect x="16" y="11" width="1" height="1" fill="#565c64"/><rect x="17" y="11" width="10" height="1" fill="#17120c"/><rect x="27" y="11" width="2" height="1" fill="#8e949c"/><rect x="29" y="11" width="1" height="1" fill="#565c64"/><rect x="30" y="11" width="2" height="1" fill="#17120c"/><rect x="0" y="12" width="2" height="1" fill="#17120c"/><rect x="2" y="12" width="2" height="1" fill="#8e949c"/><rect x="4" y="12" width="1" height="1" fill="#565c64"/><rect x="5" y="12" width="9" height="1" fill="#17120c"/><rect x="14" y="12" width="2" height="1" fill="#8e949c"/><rect x="16" y="12" width="1" height="1" fill="#565c64"/><rect x="17" y="12" width="10" height="1" fill="#17120c"/><rect x="27" y="12" width="2" height="1" fill="#8e949c"/><rect x="29" y="12" width="1" height="1" fill="#565c64"/><rect x="30" y="12" width="2" height="1" fill="#17120c"/><rect x="0" y="13" width="2" height="1" fill="#17120c"/><rect x="2" y="13" width="2" height="1" fill="#8e949c"/><rect x="4" y="13" width="1" height="1" fill="#565c64"/><rect x="5" y="13" width="9" height="1" fill="#17120c"/><rect x="14" y="13" width="2" height="1" fill="#8e949c"/><rect x="16" y="13" width="1" height="1" fill="#565c64"/><rect x="17" y="13" width="10" height="1" fill="#17120c"/><rect x="27" y="13" width="2" height="1" fill="#8e949c"/><rect x="29" y="13" width="1" height="1" fill="#565c64"/><rect x="30" y="13" width="2" height="1" fill="#17120c"/></svg>
